<?xml version="1.0" standalone="no"?>
<!DOCTYPE svg PUBLIC "-//W3C//DTD SVG 20010904//EN"
 "http://www.w3.org/TR/2001/REC-SVG-20010904/DTD/svg10.dtd">
<svg version="1.0" xmlns="http://www.w3.org/2000/svg"
 width="512.000000pt" height="512.000000pt" viewBox="0 0 512.000000 512.000000"
 preserveAspectRatio="xMidYMid meet">

<g transform="translate(0.000000,512.000000) scale(0.100000,-0.100000)"
fill="#f00" stroke="none">
<path d="M4672 4728 l-102 -103 -543 0 c-600 0 -562 4 -694 -68 -117 -63 -230
-210 -263 -342 -7 -27 -17 -148 -24 -267 -6 -119 -14 -219 -17 -223 -4 -3 -35
6 -70 19 -163 65 -393 97 -551 77 -479 -62 -867 -421 -964 -896 -8 -38 -17
-161 -21 -272 l-6 -203 24 0 c13 0 34 -3 45 -6 21 -6 21 -3 26 195 3 111 7
204 11 207 3 3 25 -6 49 -19 144 -85 347 -109 508 -61 163 49 314 172 383 314
37 76 39 76 53 -5 12 -65 58 -169 106 -237 131 -182 322 -289 553 -307 l80 -6
3 -477 2 -477 -65 -52 c-36 -29 -65 -54 -65 -56 0 -2 119 -3 265 -3 l265 0 0
658 c0 724 -3 775 -60 944 -58 173 -136 298 -275 440 l-75 77 35 233 c19 128
35 236 35 240 0 5 151 8 335 8 l336 0 49 -39 c60 -48 139 -87 211 -106 64 -17
208 -19 262 -4 22 6 40 9 42 7 2 -2 17 -95 33 -207 17 -112 33 -205 35 -207 2
-3 50 10 107 28 l102 32 -6 46 c-3 25 -10 140 -17 257 l-12 211 32 41 c124
156 145 395 51 581 -28 56 -84 130 -99 130 -3 0 -52 -46 -109 -102z"/>
<path d="M3592 3615 c-43 -19 -65 -69 -51 -118 24 -88 150 -96 185 -12 36 87
-48 168 -134 130z m112 -44 c23 -25 13 -59 -20 -67 -30 -8 -54 11 -54 42 0 22
22 43 46 44 6 0 19 -9 28 -19z"/>
<path d="M4193 3623 c-12 -2 -34 -18 -48 -34 -34 -42 -33 -89 3 -130 24 -26
36 -32 72 -32 36 0 48 6 72 32 66 74 0 184 -99 164z m101 -52 c23 -25 13 -59
-20 -67 -30 -8 -54 11 -54 42 0 22 22 43 46 44 6 0 19 -9 28 -19z"/>
<path d="M803 3475 c-62 -27 -74 -106 -22 -149 62 -53 148 -17 149 62 0 46
-16 71 -55 88 -40 16 -32 17 -72 -1z m109 -50 c8 -19 8 -28 -2 -40 -18 -21
-57 -19 -70 4 -13 25 -13 27 6 45 23 24 53 20 66 -9z"/>
<path d="M1365 3482 c-74 -15 -94 -124 -30 -166 60 -39 145 6 145 76 l0 33
-13 -25 c-24 -48 -93 -30 -80 21 7 24 48 36 68 19 13 -11 14 -10 10 2 -10 25
-66 47 -100 40z"/>
<path d="M600 2426 c-78 -27 -95 -36 -93 -52 1 -12 -15 -32 -47 -57 -97 -73
-188 -215 -225 -352 -11 -40 -18 -121 -22 -240 l-6 -180 58 -115 c123 -246
269 -452 455 -644 190 -196 422 -373 631 -481 l89 -46 0 120 c0 228 52 390
176 552 81 105 201 199 323 250 l66 28 3 114 3 113 -49 32 c-124 80 -252 226
-334 379 -43 80 -44 81 -68 68 -39 -22 -106 -28 -156 -16 -26 7 -49 9 -52 6
-3 -2 -49 -157 -102 -342 -130 -451 -131 -455 -135 -451 -3 3 -57 184 -198
668 -41 140 -103 351 -137 468 -35 116 -68 212 -74 211 -6 0 -54 -15 -106 -33z"/>
<path d="M2133 2443 c-13 -3 -36 -18 -53 -34 -25 -25 -30 -38 -30 -77 1 -73
42 -112 119 -112 30 0 46 7 69 30 82 82 11 214 -105 193z m105 -55 c17 -17 15
-63 -2 -78 -23 -18 -59 -8 -75 22 -14 24 -14 28 3 47 21 23 56 27 74 9z"/>
<path d="M2893 2443 c-28 -5 -72 -50 -79 -80 -19 -73 35 -143 110 -143 54 0
91 28 107 79 25 82 -51 162 -138 144z m116 -57 c21 -25 9 -69 -21 -80 -50 -17
-89 42 -52 78 19 20 58 21 73 2z"/>
<path d="M3867 2211 c-26 -15 -50 -31 -53 -34 -4 -3 17 -43 45 -89 28 -46 51
-91 51 -100 0 -9 -54 -215 -120 -458 l-120 -441 126 -160 c69 -88 130 -159
134 -157 17 6 250 309 250 324 0 9 -54 214 -120 457 l-121 440 52 86 c29 47
54 89 55 92 4 7 -108 69 -122 68 -5 0 -30 -13 -57 -28z"/>
</g>
</svg>
