<?xml version="1.0" standalone="no"?>
<!DOCTYPE svg PUBLIC "-//W3C//DTD SVG 20010904//EN"
 "http://www.w3.org/TR/2001/REC-SVG-20010904/DTD/svg10.dtd">
<svg version="1.0" xmlns="http://www.w3.org/2000/svg"
 width="512.000000pt" height="512.000000pt" viewBox="0 0 512.000000 512.000000"
 preserveAspectRatio="xMidYMid meet">

<g transform="translate(0.000000,512.000000) scale(0.100000,-0.100000)"
fill="#000000" stroke="none">
<path d="M610 4234 c-208 -44 -381 -209 -435 -414 -13 -47 -15 -232 -15 -1209
0 -1020 2 -1160 16 -1215 51 -198 231 -369 433 -412 55 -11 371 -14 1946 -14
2066 0 1949 -3 2083 62 85 41 204 158 250 244 71 136 67 61 67 1334 0 1273 4
1198 -67 1334 -48 91 -159 198 -250 241 -144 69 -15 65 -2088 64 -1569 0
-1886 -3 -1940 -15z m3922 -252 c93 -45 171 -140 180 -217 3 -27 -20 -41
-1072 -627 -591 -330 -1079 -600 -1085 -600 -10 0 -2144 1188 -2158 1201 -4 4
2 33 13 65 36 95 135 181 237 205 22 5 847 8 1928 8 l1890 -2 67 -33z m-3086
-1094 c1004 -561 1062 -592 1109 -592 48 0 101 29 1109 592 583 326 1061 592
1063 592 2 0 2 -451 1 -1002 l-3 -1003 -23 -58 c-30 -73 -104 -149 -179 -185
l-58 -27 -1900 0 c-1481 0 -1909 3 -1941 12 -92 29 -182 115 -222 214 -16 41
-17 120 -20 1047 -1 551 -1 1002 1 1002 3 0 481 -266 1063 -592z"/>
</g>
</svg>